<?xml version="1.0" standalone="no"?>
<!DOCTYPE svg PUBLIC "-//W3C//DTD SVG 20010904//EN"
 "http://www.w3.org/TR/2001/REC-SVG-20010904/DTD/svg10.dtd">
<svg version="1.0" xmlns="http://www.w3.org/2000/svg"
 width="460.000000pt" height="460.000000pt" viewBox="0 0 460.000000 460.000000"
 preserveAspectRatio="xMidYMid meet">
<metadata>
Created by potrace 1.11, written by Peter Selinger 2001-2013
</metadata>
<g transform="translate(0.000000,460.000000) scale(0.100000,-0.100000)"
fill="#000000" stroke="none">
<path d="M1106 4385 c-4 -16 -13 -25 -26 -25 -18 0 -20 -7 -20 -65 0 -57 -2
-65 -19 -65 -20 0 -31 -34 -31 -101 0 -32 -3 -39 -20 -39 -17 0 -20 -7 -20
-52 0 -75 -11 -128 -25 -128 -16 0 -25 -45 -25 -122 0 -50 -3 -61 -19 -65 -20
-5 -31 -75 -31 -205 0 -51 -3 -68 -14 -68 -19 0 -26 -45 -26 -179 0 -135 -8
-191 -25 -191 -21 0 -26 -61 -25 -259 1 -102 1 -304 1 -448 l-1 -263 -45 0
c-38 0 -45 -3 -45 -20 0 -17 -7 -20 -44 -20 -39 0 -45 -3 -48 -22 -2 -15 -11
-24 -25 -26 -20 -3 -23 -9 -23 -48 0 -37 -3 -44 -20 -44 -19 0 -20 -7 -20
-160 0 -153 1 -160 20 -160 18 0 20 -7 20 -59 0 -86 9 -121 31 -121 13 0 19
-7 19 -22 0 -41 11 -66 31 -71 11 -3 19 -14 19 -26 0 -14 6 -21 20 -21 15 0
20 -7 20 -25 0 -20 5 -25 25 -25 18 0 25 -5 25 -19 0 -13 8 -21 22 -23 15 -2
24 -11 26 -25 3 -21 9 -23 63 -23 52 0 59 -2 59 -20 0 -16 7 -20 38 -20 20 0
54 -3 75 -6 35 -6 37 -8 37 -45 0 -32 3 -39 20 -39 15 0 22 -9 27 -30 4 -21
11 -30 24 -30 16 0 19 -8 19 -45 0 -41 2 -45 25 -45 20 0 25 -5 25 -25 0 -18
5 -25 20 -25 17 0 20 -7 20 -40 0 -35 3 -40 24 -40 20 0 24 -6 29 -42 3 -23 3
-46 1 -50 -3 -4 -27 -8 -55 -8 -38 0 -49 -4 -49 -16 0 -8 -4 -13 -9 -9 -5 3
-16 -2 -24 -10 -9 -8 -27 -15 -41 -15 -17 0 -26 -6 -26 -16 0 -8 -4 -13 -9 -9
-5 3 -12 1 -15 -4 -3 -4 -23 -11 -43 -14 -23 -4 -43 -15 -51 -27 -7 -11 -21
-20 -32 -20 -11 0 -29 -9 -40 -20 -11 -11 -31 -20 -45 -20 -20 0 -25 -5 -25
-25 0 -23 -4 -25 -45 -25 -38 0 -45 -3 -45 -19 0 -13 -8 -21 -22 -23 -15 -2
-24 -11 -26 -25 -2 -15 -10 -23 -23 -23 -12 0 -19 -7 -19 -19 0 -16 -9 -21
-45 -27 -34 -5 -45 -11 -45 -24 0 -12 -9 -20 -23 -22 -14 -2 -23 -11 -25 -25
-3 -17 -10 -23 -28 -23 -19 0 -24 -5 -24 -25 0 -18 -5 -25 -20 -25 -13 0 -20
-7 -20 -20 0 -15 -7 -20 -25 -20 -20 0 -25 -5 -25 -25 0 -18 -5 -25 -20 -25
-13 0 -20 -7 -20 -20 0 -19 7 -20 166 -20 161 0 166 1 161 20 -4 15 0 20 14
20 10 0 19 -5 19 -11 0 -5 -4 -7 -10 -4 -5 3 -10 0 -10 -8 0 -19 30 -17 31 2
0 12 3 11 9 -4 7 -16 9 -17 9 -3 1 9 -3 20 -9 23 -5 3 -10 15 -10 25 0 15 7
19 40 18 27 0 40 -5 40 -14 0 -8 4 -14 9 -14 5 0 8 8 7 17 0 9 8 22 19 27 11
6 20 17 21 24 2 29 5 33 17 26 9 -6 9 -4 -1 8 -10 13 -9 15 5 15 40 0 43 3 37
28 -5 22 -3 25 21 25 22 0 26 4 22 19 -4 17 1 19 41 19 30 0 41 -3 31 -8 -10
-7 -8 -11 11 -19 14 -5 19 -10 13 -10 -15 -1 -18 -41 -3 -41 5 0 7 6 4 14 -3
7 7 23 22 35 15 11 22 21 16 21 -6 0 -14 -5 -17 -10 -10 -16 -27 0 -22 21 3
11 2 19 -2 19 -4 0 -8 7 -8 15 0 8 6 15 12 15 7 0 12 -12 11 -27 -1 -22 3 -27
17 -25 12 2 21 -4 24 -17 3 -12 9 -21 13 -21 12 0 18 -60 7 -67 -6 -3 -7 -1
-3 5 4 7 1 12 -9 12 -9 0 -13 -5 -10 -10 3 -6 13 -22 21 -38 12 -21 15 -23 13
-7 -3 34 1 46 11 40 6 -3 10 -1 10 4 0 6 -4 11 -10 11 -5 0 -10 5 -10 11 0 5
4 8 9 4 5 -3 12 5 14 17 4 20 4 19 6 -4 1 -20 6 -28 19 -28 11 0 18 -8 19 -20
1 -11 -2 -20 -8 -20 -5 0 -9 -5 -9 -11 0 -8 4 -8 12 -2 7 5 32 11 56 12 39 2
42 0 42 -24 0 -20 5 -25 26 -25 15 0 33 -8 40 -17 13 -17 14 -17 8 0 -3 9 -1
17 5 17 6 0 11 -9 11 -20 0 -22 9 -24 83 -21 41 2 47 -1 47 -19 0 -20 3 -20
448 -20 271 0 453 4 462 10 13 9 13 10 0 10 -12 1 -11 3 3 11 9 6 25 9 35 8
33 -3 42 1 42 20 0 17 8 19 70 19 72 0 76 -3 70 -48 -1 -10 3 -9 14 5 10 13
15 15 16 6 0 -9 8 -11 24 -7 15 4 26 1 29 -7 4 -9 7 -9 18 1 8 7 10 12 4 11
-5 -2 -21 3 -34 10 -17 10 -21 10 -16 1 5 -8 3 -11 -6 -8 -8 3 -13 14 -12 24
1 18 1 18 -12 1 -12 -16 -13 -16 -18 3 -10 37 3 61 32 60 50 -4 61 0 61 19 0
14 6 19 20 18 11 -1 20 -5 20 -10 0 -4 5 -5 10 -2 5 3 10 0 10 -7 0 -8 5 -6
11 5 6 9 14 15 18 13 4 -3 5 9 3 25 -4 28 -2 30 24 28 53 -4 64 0 65 24 0 21
1 21 9 2 5 -11 9 -14 9 -7 1 6 6 12 12 12 5 0 7 -6 3 -12 -4 -7 -3 -9 2 -5 4
4 7 24 5 43 -2 32 -1 34 27 34 25 0 29 3 25 20 -3 12 0 20 6 20 7 0 9 -5 5
-13 -5 -8 -2 -8 9 2 9 7 17 26 17 42 0 28 2 29 50 29 46 0 55 5 52 31 -1 4 14
3 33 -1 20 -4 35 -4 35 1 0 5 -4 9 -9 9 -5 0 -8 11 -8 25 0 22 2 23 21 13 11
-6 18 -7 13 -3 -4 5 1 17 10 28 10 11 12 17 6 13 -7 -4 -13 -2 -13 3 0 6 16
11 36 11 31 0 36 -3 31 -20 -5 -21 13 -26 70 -21 17 1 21 -4 20 -21 0 -13 -5
-26 -10 -29 -5 -3 -2 -9 7 -12 9 -4 16 -3 16 1 0 5 19 8 42 8 32 -1 44 -5 46
-19 2 -9 10 -17 17 -17 7 0 15 -6 18 -12 4 -10 7 -10 18 -1 23 22 35 14 37
-23 2 -30 0 -35 -13 -30 -9 3 -13 2 -10 -3 3 -6 14 -9 25 -8 10 1 17 4 14 8
-2 4 14 7 36 7 33 1 40 -3 40 -18 0 -15 9 -19 42 -22 38 -3 43 -6 50 -35 5
-18 13 -33 19 -33 6 0 7 5 4 10 -3 6 -1 10 4 10 6 0 11 -9 11 -20 0 -11 7 -20
16 -20 8 0 13 -4 9 -9 -3 -5 -1 -12 5 -16 5 -3 10 1 10 9 0 11 10 16 30 16 19
0 30 -5 29 -12 -3 -29 2 -49 11 -43 6 3 10 1 10 -5 0 -6 4 -9 9 -6 5 3 11 -1
15 -9 3 -8 15 -15 26 -15 15 0 20 -7 20 -25 0 -20 5 -25 25 -25 18 0 25 -5 25
-20 0 -18 10 -25 32 -21 5 0 7 -2 7 -7 -5 -29 4 -32 96 -32 88 0 95 1 95 20 0
13 -7 20 -20 20 -15 0 -20 7 -20 25 0 20 -5 25 -25 25 -18 0 -25 5 -25 20 0
13 -7 20 -20 20 -15 0 -20 7 -20 25 0 20 -5 25 -24 25 -18 0 -25 6 -28 22 -2
15 -11 24 -25 26 -14 2 -23 10 -23 22 0 13 -11 19 -45 24 -36 6 -45 11 -45 27
0 12 -7 19 -19 19 -13 0 -21 8 -23 23 -2 14 -11 23 -25 25 -15 2 -23 10 -23
23 0 16 -7 19 -45 19 -41 0 -45 2 -45 24 0 20 -6 24 -40 30 -26 4 -40 11 -40
21 0 9 -9 15 -24 15 -13 0 -29 7 -36 15 -7 8 -16 13 -20 10 -4 -3 -10 2 -14
10 -3 8 -17 15 -31 15 -14 0 -34 9 -45 20 -11 11 -31 20 -45 20 -14 0 -25 5
-25 10 0 6 -6 10 -14 10 -8 0 -16 7 -20 15 -4 11 -20 15 -55 15 -27 0 -53 5
-56 10 -4 6 -11 8 -16 5 -5 -4 -9 1 -9 10 0 9 4 14 9 11 10 -7 21 17 21 45 0
12 7 19 19 19 16 0 21 9 27 45 5 34 11 45 24 45 12 0 20 9 22 23 2 14 11 23
26 25 19 3 22 9 22 48 0 37 3 44 19 44 16 0 21 9 27 45 5 35 10 45 25 45 12 0
19 7 19 19 0 20 39 31 113 31 30 0 37 4 37 20 0 18 7 20 59 20 54 0 60 2 63
23 2 14 11 23 26 25 14 2 22 10 22 23 0 14 7 19 25 19 20 0 25 5 25 25 0 18 5
25 20 25 14 0 20 7 20 21 0 12 8 23 19 26 20 5 31 30 31 71 0 15 6 22 19 22
21 0 31 40 31 128 0 45 3 52 20 52 19 0 20 7 20 160 0 153 -1 160 -20 160 -17
0 -20 7 -20 44 0 39 -3 45 -22 48 -15 2 -24 11 -26 25 -3 20 -9 23 -48 23 -37
0 -44 3 -44 20 0 15 -7 20 -25 20 -16 0 -25 -6 -25 -15 0 -8 -9 -15 -20 -15
-20 0 -20 7 -21 278 0 152 0 361 1 463 1 198 -4 259 -25 259 -17 0 -25 56 -25
191 0 134 -7 179 -26 179 -11 0 -14 17 -14 68 0 130 -11 200 -31 205 -16 4
-19 15 -19 65 0 77 -9 122 -25 122 -14 0 -25 53 -25 128 0 45 -3 52 -20 52
-17 0 -20 7 -20 39 0 67 -11 101 -31 101 -17 0 -19 8 -19 65 0 58 -2 65 -20
65 -13 0 -22 9 -26 25 l-6 25 -1188 0 -1188 0 -6 -25z m406 -87 c2 -15 11 -24
26 -26 18 -3 22 -10 22 -43 0 -35 3 -39 25 -39 23 0 25 4 25 45 0 41 2 45 25
45 18 0 25 5 25 20 0 17 7 20 40 20 33 0 40 -3 40 -20 0 -14 7 -20 24 -20 20
0 25 -6 30 -45 6 -36 11 -45 27 -45 16 0 19 7 19 45 0 41 2 45 25 45 18 0 25
5 25 20 0 17 7 20 39 20 30 0 40 -4 44 -20 3 -12 14 -20 25 -20 16 0 21 -9 26
-45 6 -36 11 -45 27 -45 12 0 19 7 19 20 0 13 7 20 19 20 15 0 20 10 25 45 l7
45 58 0 c56 0 57 -1 69 -33 7 -18 12 -48 12 -65 0 -31 2 -32 40 -32 38 0 40 1
40 32 0 17 5 47 12 65 12 32 13 33 69 33 l58 0 7 -45 c5 -35 10 -45 25 -45 12
0 19 -7 19 -20 0 -13 7 -20 19 -20 16 0 21 9 27 45 5 36 10 45 26 45 11 0 22
8 25 20 4 16 14 20 44 20 32 0 39 -3 39 -20 0 -15 7 -20 25 -20 23 0 25 -4 25
-45 0 -38 3 -45 19 -45 16 0 21 9 27 45 5 39 10 45 30 45 17 0 24 6 24 20 0
17 7 20 40 20 33 0 40 -3 40 -20 0 -15 7 -20 25 -20 23 0 25 -4 25 -45 0 -41
2 -45 25 -45 22 0 25 4 25 39 0 33 4 40 23 43 14 2 23 11 25 26 3 18 10 22 43
22 27 0 39 -4 39 -14 0 -8 10 -16 22 -18 19 -2 25 -12 32 -50 6 -37 12 -48 27
-48 12 0 19 7 19 20 0 13 7 20 19 20 15 0 20 10 25 45 7 44 8 45 45 45 30 0
40 -4 44 -20 3 -12 14 -20 26 -20 18 0 21 -6 21 -45 0 -37 3 -45 19 -45 19 0
31 -39 31 -106 0 -23 5 -33 20 -37 17 -4 20 -14 20 -60 0 -72 10 -117 25 -117
15 0 25 -53 25 -132 0 -51 2 -58 20 -58 18 0 20 -7 20 -67 0 -111 12 -203 25
-203 18 0 25 -57 25 -197 0 -114 -1 -123 -19 -123 -15 0 -21 10 -26 40 -5 30
-11 40 -26 40 -13 0 -19 7 -19 24 0 18 -6 25 -22 28 -15 2 -24 11 -26 26 -2
14 -10 22 -22 22 -12 0 -20 8 -22 23 -2 14 -11 23 -25 25 -15 2 -23 10 -23 23
0 12 -7 19 -20 19 -13 0 -20 7 -20 20 0 15 -7 20 -25 20 -20 0 -25 5 -25 25 0
20 -5 25 -24 25 -20 0 -25 6 -30 45 -5 27 -12 45 -20 45 -9 0 -16 18 -20 45
-6 36 -11 45 -27 45 -13 0 -19 7 -19 24 0 18 -6 25 -22 28 -15 2 -24 11 -26
26 -3 18 -10 22 -43 22 -31 0 -39 4 -39 18 0 17 -12 20 -110 26 -105 6 -391 0
-457 -10 -20 -3 -33 -11 -33 -19 0 -13 -30 -15 -190 -15 -160 0 -190 2 -190
15 0 8 -13 16 -32 19 -67 10 -353 16 -458 10 -98 -6 -110 -9 -110 -26 0 -14
-8 -18 -39 -18 -33 0 -40 -4 -43 -22 -2 -15 -11 -24 -25 -26 -17 -3 -23 -10
-23 -28 0 -17 -6 -24 -19 -24 -16 0 -21 -9 -27 -45 -4 -27 -11 -45 -20 -45 -8
0 -15 -18 -20 -45 -5 -39 -10 -45 -30 -45 -19 0 -24 -5 -24 -25 0 -20 -5 -25
-25 -25 -18 0 -25 -5 -25 -20 0 -13 -7 -20 -20 -20 -13 0 -20 -7 -20 -19 0
-13 -8 -21 -22 -23 -15 -2 -24 -11 -26 -25 -2 -14 -11 -23 -25 -25 -14 -2 -23
-11 -25 -25 -2 -15 -10 -23 -23 -23 -13 0 -19 -7 -19 -21 0 -12 -8 -23 -19
-26 -13 -3 -22 -17 -26 -44 -7 -43 -29 -52 -39 -16 -8 29 -8 139 0 216 5 41
11 61 20 61 8 0 14 6 15 13 0 6 4 68 8 135 6 102 10 126 24 133 13 8 17 23 17
62 0 84 10 125 31 130 17 5 19 15 19 91 0 78 2 86 19 86 17 0 21 10 27 70 6
59 9 70 25 70 16 0 19 8 19 50 l0 50 70 0 70 0 0 -45 0 -45 45 0 45 0 0 45 c0
39 3 45 21 45 12 0 23 8 26 20 4 16 14 20 43 20 32 0 39 -4 42 -22z m515 -637
c4 -17 19 -20 139 -26 74 -4 194 -4 268 0 120 6 135 9 139 26 5 18 17 19 236
19 222 0 231 -1 231 -19 0 -16 9 -21 45 -27 35 -5 45 -10 45 -25 0 -12 7 -19
19 -19 15 0 20 -10 26 -50 4 -30 12 -50 20 -50 14 0 25 -43 25 -96 0 -34 1
-34 44 -34 39 0 45 -3 48 -22 2 -15 11 -24 26 -26 14 -2 22 -10 22 -22 0 -12
8 -20 23 -22 14 -2 23 -11 25 -25 2 -15 10 -23 23 -23 12 0 19 -7 19 -19 0
-13 8 -21 23 -23 14 -2 23 -11 25 -25 2 -15 10 -23 23 -23 14 0 19 -7 19 -25
0 -18 5 -25 19 -25 16 0 21 -9 27 -45 5 -34 11 -45 25 -45 13 0 19 -11 25 -45
5 -35 10 -45 25 -45 16 0 19 -8 19 -47 0 -92 13 -183 25 -183 9 0 13 -63 17
-242 6 -296 -2 -476 -21 -487 -10 -6 -15 -39 -18 -107 -5 -129 -11 -164 -27
-164 -13 0 -26 -60 -26 -121 0 -16 -7 -32 -17 -37 -11 -7 -18 -28 -21 -67 -4
-44 -9 -59 -22 -62 -19 -5 -30 -43 -30 -104 0 -32 -4 -39 -19 -39 -15 0 -20
-10 -25 -45 -6 -36 -11 -45 -27 -45 -16 0 -19 -7 -19 -45 0 -38 -3 -45 -19
-45 -16 0 -21 -9 -27 -45 -5 -35 -10 -45 -25 -45 -14 0 -19 -7 -19 -25 0 -18
-5 -25 -19 -25 -16 0 -21 -9 -27 -45 -5 -34 -11 -45 -24 -45 -12 0 -20 -9 -22
-22 -2 -15 -11 -24 -25 -26 -23 -3 -23 -3 -23 137 0 131 -1 141 -19 141 -20 0
-31 34 -31 101 0 32 -4 39 -19 39 -16 0 -20 8 -23 43 -2 35 -7 43 -25 45 -17
3 -23 10 -23 28 0 17 -5 24 -20 24 -13 0 -20 7 -20 19 0 13 -8 21 -22 23 -15
2 -24 11 -26 26 -3 16 -10 22 -28 22 -17 0 -24 5 -24 20 0 16 -7 20 -37 20
-55 0 -82 10 -88 31 -5 16 -16 19 -76 19 -62 0 -69 2 -69 20 0 19 -7 20 -114
20 -111 0 -115 1 -118 23 -3 21 -7 22 -115 25 l-113 3 0 -26 0 -25 -115 0
c-108 0 -115 -1 -115 -20 0 -19 -7 -20 -89 -20 -85 0 -90 -1 -93 -22 -2 -19
-10 -24 -47 -26 -33 -3 -44 -8 -48 -23 -3 -11 -14 -19 -25 -19 -11 0 -22 -9
-25 -20 -3 -11 -14 -20 -24 -20 -11 0 -19 -4 -19 -10 0 -5 -9 -10 -19 -10 -15
0 -21 -10 -26 -40 -5 -29 -12 -40 -25 -40 -13 0 -19 -11 -24 -40 -4 -24 -12
-40 -20 -40 -18 0 -26 -22 -26 -71 0 -32 -3 -39 -20 -39 -18 0 -20 -7 -22 -92
-2 -51 -3 -133 -3 -183 0 -86 -1 -90 -22 -93 -19 -3 -23 1 -23 22 0 18 -6 25
-22 28 -15 2 -24 11 -26 26 -2 13 -10 22 -21 22 -14 0 -20 10 -25 39 -4 27
-12 40 -26 44 -14 3 -20 14 -20 31 0 19 -5 26 -19 26 -15 0 -20 10 -25 45 -6
36 -11 45 -27 45 -16 0 -19 7 -19 45 0 38 -3 45 -19 45 -16 0 -21 9 -27 45 -5
35 -10 45 -25 45 -16 0 -19 8 -19 50 0 42 -3 50 -19 50 -20 0 -31 34 -31 97 0
26 -5 36 -20 40 -17 4 -20 14 -20 57 0 73 -11 126 -25 126 -17 0 -25 46 -25
141 0 63 -3 80 -17 87 -23 13 -32 242 -24 590 5 237 8 264 24 273 13 8 17 23
17 75 0 60 2 65 25 74 21 8 25 16 25 50 0 33 3 40 19 40 16 0 21 9 27 45 5 35
10 45 25 45 14 0 19 7 19 25 0 18 5 25 19 25 13 0 21 8 23 23 2 14 11 23 26
25 14 2 22 10 22 23 0 12 7 19 19 19 13 0 21 8 23 23 2 14 11 23 26 25 14 2
22 10 22 22 0 12 8 20 23 22 14 2 23 11 25 26 3 19 9 22 48 22 43 0 44 0 44
34 0 53 11 96 25 96 8 0 16 20 20 50 6 40 11 50 26 50 12 0 19 7 19 19 0 15
10 20 45 25 36 6 45 11 45 27 0 18 9 19 231 19 219 0 231 -1 236 -19z m-1247
-1726 c0 -41 -2 -45 -25 -45 -18 0 -25 5 -25 20 0 13 -7 20 -20 20 -19 0 -20
-7 -20 -185 0 -176 1 -185 19 -185 16 0 21 -9 27 -45 5 -35 10 -45 25 -45 16
0 19 -8 19 -45 0 -38 3 -45 20 -45 11 0 20 -7 20 -15 0 -25 23 -65 37 -65 7 0
13 7 13 15 0 11 12 15 44 15 42 0 44 -1 50 -37 12 -75 8 -93 -19 -93 -18 0
-25 5 -25 20 0 17 -7 20 -45 20 -41 0 -45 2 -45 25 0 20 -5 25 -25 25 -18 0
-25 5 -25 20 0 13 -7 20 -20 20 -15 0 -20 7 -20 24 0 18 -6 25 -22 28 -20 3
-23 10 -26 51 -2 37 -7 47 -21 47 -22 0 -31 72 -31 261 0 154 6 189 31 189 14
0 19 7 19 25 0 23 4 25 45 25 l45 0 0 -45z m3137 26 c3 -11 13 -21 24 -24 16
-4 19 -15 19 -70 0 -45 5 -70 15 -81 8 -8 15 -28 15 -44 0 -17 -6 -32 -15 -36
-12 -4 -15 -23 -15 -83 0 -113 -8 -153 -31 -153 -16 0 -19 -8 -19 -45 0 -38
-3 -45 -19 -45 -13 0 -21 -8 -23 -22 -2 -15 -11 -24 -25 -26 -14 -2 -23 -11
-25 -25 -2 -14 -11 -23 -25 -25 -15 -2 -23 -10 -23 -23 0 -16 -7 -19 -41 -19
-32 0 -42 -4 -46 -20 -4 -16 -14 -20 -49 -20 -37 0 -44 3 -44 20 0 13 7 20 19
20 17 0 20 8 23 48 l3 47 68 -4 c66 -3 67 -3 67 23 0 21 5 26 25 26 23 0 25 4
25 45 0 38 3 45 20 45 17 0 20 7 20 45 0 39 3 45 25 51 l25 6 0 148 c0 81 -3
162 -6 179 -7 34 -34 43 -34 11 0 -14 -7 -20 -22 -20 -13 0 -33 -3 -45 -6 -21
-6 -23 -3 -23 39 0 51 4 54 83 56 40 1 50 -2 54 -18z m-3137 -191 c0 -13 7
-20 20 -20 15 0 20 -7 20 -25 0 -18 -5 -25 -20 -25 -13 0 -20 -7 -20 -20 0
-13 -7 -20 -20 -20 -18 0 -20 7 -20 65 0 58 2 65 20 65 13 0 20 -7 20 -20z
m3080 -50 c0 -63 -2 -70 -20 -70 -15 0 -20 7 -20 25 0 18 -5 25 -19 25 -26 0
-34 14 -26 50 6 29 19 37 63 39 21 1 22 -3 22 -69z m-1520 -270 c0 -103 -1
-110 -20 -110 -19 0 -20 7 -20 110 0 103 1 110 20 110 19 0 20 -7 20 -110z
m-1470 45 c0 -18 5 -25 20 -25 17 0 20 -7 20 -40 0 -43 -23 -57 -33 -20 -3 12
-14 20 -26 20 -18 0 -21 6 -21 45 0 38 3 45 20 45 15 0 20 -7 20 -25z m2900
-25 c0 -47 -2 -50 -25 -50 -19 0 -25 -5 -25 -21 0 -14 -5 -19 -17 -17 -13 2
-19 15 -21 45 -3 37 0 42 20 45 15 2 24 11 26 26 2 14 10 22 23 22 16 0 19 -7
19 -50z m-1560 -70 l0 -70 -159 0 c-150 0 -159 -1 -164 -20 -5 -18 -14 -20
-84 -20 -114 0 -153 -8 -153 -32 0 -13 -6 -18 -17 -16 -26 5 -29 38 -4 45 11
3 21 15 23 27 2 13 11 22 26 24 13 2 22 10 22 22 0 13 11 19 44 24 32 5 45 12
49 26 4 17 14 20 71 20 59 0 66 2 66 20 0 19 7 20 140 20 l140 0 0 -70z m500
50 c0 -18 7 -20 65 -20 61 0 66 -2 75 -25 8 -21 16 -25 49 -25 33 0 40 -3 43
-22 2 -15 11 -24 26 -26 14 -2 22 -10 22 -23 0 -12 7 -19 20 -19 15 0 20 -7
20 -25 0 -30 -29 -35 -37 -6 -6 22 -46 31 -144 31 -85 0 -129 9 -129 26 0 11
-26 14 -127 14 -71 0 -145 3 -165 6 l-38 7 0 63 0 64 160 0 c153 0 160 -1 160
-20z m-130 -224 c0 -18 31 -26 100 -26 90 0 130 -10 130 -31 0 -15 8 -19 40
-19 32 0 40 4 40 19 0 14 10 20 41 25 22 4 44 4 50 1 5 -4 9 -35 9 -71 0 -56
2 -64 18 -64 17 0 20 -12 26 -108 3 -59 3 -142 0 -184 -6 -63 -10 -77 -25 -81
-16 -4 -19 -15 -19 -65 l0 -61 -45 -7 c-34 -5 -45 -11 -45 -24 0 -18 -41 -30
-101 -30 -18 0 -28 -6 -32 -20 -5 -18 -14 -20 -97 -20 -83 0 -92 2 -97 19 -3
11 -15 21 -27 23 -13 2 -22 11 -24 24 -2 12 -12 24 -23 27 -13 4 -19 14 -19
35 0 55 12 90 31 95 11 3 19 14 19 25 0 27 -38 32 -242 32 l-168 0 0 -50 c0
-38 4 -50 15 -50 8 0 15 -8 15 -17 0 -10 3 -28 6 -40 5 -18 2 -23 -14 -23 -15
0 -22 -7 -24 -28 -2 -19 -9 -28 -25 -30 -15 -2 -23 -10 -23 -23 0 -17 -8 -19
-84 -19 -101 0 -146 8 -146 26 0 8 -18 15 -44 19 -30 5 -46 13 -49 25 -3 11
-18 19 -45 23 -32 6 -41 12 -46 32 -4 14 -13 25 -20 25 -22 0 -26 34 -26 268
0 216 1 224 20 229 16 4 20 14 20 44 0 46 9 53 60 44 30 -5 40 -11 40 -26 0
-16 7 -19 45 -19 37 0 45 3 45 19 0 22 40 31 148 31 65 0 74 2 79 20 5 19 14
20 259 20 210 0 254 -2 254 -14z m-1021 -206 c-1 -81 -3 -90 -20 -90 -17 0
-19 9 -19 90 0 84 1 90 20 90 20 0 21 -6 19 -90z m1565 53 c8 -49 8 -269 -1
-355 -6 -73 -26 -92 -37 -37 -8 42 -8 414 1 422 16 17 31 4 37 -30z m-726
-429 l30 -6 7 -89 c7 -85 8 -89 31 -89 17 0 24 -6 24 -19 0 -20 34 -31 96 -31
27 0 34 -4 34 -20 0 -17 7 -20 45 -20 38 0 45 3 45 20 0 18 7 20 75 20 68 0
75 -2 75 -20 0 -14 -7 -20 -22 -20 -41 0 -66 -11 -71 -31 -3 -11 -14 -19 -27
-19 -13 0 -24 -8 -27 -20 -3 -13 -14 -20 -29 -20 -17 0 -24 6 -24 20 0 28 -28
25 -32 -2 -2 -15 -11 -24 -25 -26 -15 -2 -23 -10 -23 -23 0 -17 -7 -19 -69
-19 -65 0 -70 -2 -73 -22 -3 -22 -7 -23 -116 -26 -105 -2 -114 -1 -119 17 -6
24 -30 31 -115 31 -66 0 -68 1 -68 25 0 24 -2 25 -70 25 -63 0 -70 2 -70 19 0
16 -8 20 -42 23 -36 2 -44 7 -46 26 -3 16 -10 22 -28 22 -17 0 -24 6 -24 19 0
16 -8 20 -42 23 -36 2 -44 7 -46 26 -2 14 -10 22 -23 22 -14 0 -19 7 -19 26 0
21 4 25 23 22 14 -2 23 -11 25 -25 3 -20 9 -23 48 -23 36 0 44 -3 44 -19 0
-21 40 -31 128 -31 45 0 52 -3 52 -20 0 -17 7 -20 50 -20 43 0 50 3 50 20 0
16 7 20 38 20 20 0 46 3 57 6 20 5 45 45 45 71 0 7 9 13 20 13 18 0 20 7 20
75 l0 75 79 0 c43 0 92 -3 109 -6z m582 -159 c0 -8 -7 -15 -15 -15 -8 0 -15 7
-15 15 0 8 7 15 15 15 8 0 15 -7 15 -15z m-90 -50 c0 -8 -7 -15 -15 -15 -8 0
-15 7 -15 15 0 8 7 15 15 15 8 0 15 -7 15 -15z m-2070 -315 c0 -5 -4 -10 -10
-10 -5 0 -10 5 -10 10 0 6 5 10 10 10 6 0 10 -4 10 -10z"/>
<path d="M1790 2921 c0 -14 -10 -20 -44 -25 -32 -5 -45 -12 -49 -26 -4 -16
-14 -20 -46 -20 -34 0 -41 -3 -41 -19 0 -16 -9 -21 -45 -27 -35 -5 -45 -10
-45 -25 0 -13 -7 -19 -24 -19 -18 0 -25 -6 -28 -22 -2 -15 -11 -24 -25 -26
-15 -2 -23 -10 -23 -23 0 -13 -7 -19 -21 -19 -12 0 -23 -8 -26 -19 -3 -11 -13
-21 -24 -24 -11 -3 -19 -14 -19 -25 0 -14 -8 -22 -22 -24 -15 -2 -24 -11 -26
-25 -2 -15 -10 -23 -23 -23 -14 0 -19 -7 -19 -25 0 -18 -5 -25 -19 -25 -13 0
-20 -10 -24 -37 -7 -43 -3 -53 24 -53 14 0 19 7 19 25 0 18 5 25 19 25 16 0
19 -11 25 -97 9 -140 16 -173 32 -173 11 0 14 28 16 133 3 128 4 132 26 135
16 3 22 10 22 28 0 17 6 24 19 24 10 0 21 9 24 20 3 12 14 20 27 20 13 0 24 8
27 19 4 14 18 20 65 25 142 14 233 5 241 -25 3 -12 14 -19 29 -19 39 0 68 -12
68 -26 0 -8 10 -14 25 -14 32 0 34 27 3 32 -15 2 -24 11 -26 25 -3 18 -12 23
-48 29 -34 5 -44 10 -44 25 0 16 -8 19 -52 19 -29 0 -70 3 -90 6 -36 6 -38 8
-38 45 0 37 1 39 33 39 68 0 107 12 107 31 0 16 8 19 45 19 l45 0 0 90 c0 89
0 90 -25 90 -18 0 -25 -5 -25 -19z"/>
<path d="M2805 2890 c-4 -27 -4 -68 0 -90 7 -40 7 -40 51 -40 36 0 44 -3 44
-19 0 -19 39 -31 103 -31 25 0 27 -3 27 -39 0 -35 -3 -39 -31 -45 -17 -3 -58
-6 -90 -6 -52 0 -59 -2 -59 -19 0 -16 -9 -21 -45 -27 -39 -5 -45 -10 -45 -30
0 -17 -6 -24 -20 -24 -11 0 -20 -7 -20 -15 0 -9 9 -15 25 -15 15 0 25 6 25 15
0 10 14 17 41 21 27 5 43 13 46 24 7 28 113 38 252 24 50 -6 61 -10 61 -25 0
-14 7 -19 25 -19 18 0 25 -5 25 -19 0 -13 8 -21 23 -23 14 -2 23 -11 25 -25 2
-14 10 -23 21 -23 23 0 31 -42 31 -172 0 -77 3 -98 14 -98 19 0 26 45 26 167
0 103 0 104 23 101 14 -2 23 -11 25 -25 2 -15 10 -23 23 -23 12 0 19 -7 19
-20 0 -13 7 -20 20 -20 13 0 20 7 20 20 0 13 -7 20 -20 20 -17 0 -20 7 -20 44
0 39 -3 45 -22 48 -15 2 -24 11 -26 26 -2 14 -10 22 -23 22 -14 0 -19 7 -19
25 0 18 -5 25 -20 25 -13 0 -20 7 -20 20 0 13 -9 22 -25 26 -16 4 -25 13 -25
25 0 14 -7 19 -25 19 -18 0 -25 5 -25 19 0 13 -8 21 -22 23 -15 2 -24 11 -26
26 -3 16 -10 22 -28 22 -17 0 -24 6 -24 19 0 15 -10 21 -39 26 -27 4 -41 13
-44 26 -4 15 -14 19 -47 19 -33 0 -43 4 -47 20 -4 14 -17 21 -49 26 -34 5 -44
11 -44 25 0 12 -7 19 -19 19 -15 0 -20 -10 -26 -50z"/>
<path d="M1150 2370 c0 -13 7 -20 20 -20 13 0 20 7 20 20 0 13 -7 20 -20 20
-13 0 -20 -7 -20 -20z"/>
<path d="M1700 2231 c0 -10 -9 -21 -20 -24 -26 -7 -26 -33 1 -40 11 -3 23 -15
26 -26 7 -28 43 -28 43 -1 0 13 7 20 20 20 15 0 20 7 20 25 0 20 -5 25 -25 25
-18 0 -25 5 -25 20 0 13 -7 20 -20 20 -13 0 -20 -7 -20 -19z"/>
<path d="M2900 2230 c0 -15 -7 -20 -26 -20 -21 0 -25 -4 -22 -22 2 -15 11 -24
26 -26 14 -2 22 -10 22 -23 0 -12 7 -19 19 -19 22 0 35 49 25 98 -7 37 -44 47
-44 12z"/>
<path d="M3273 522 c-7 -4 -9 -13 -4 -21 6 -9 10 -7 14 8 3 12 4 21 4 21 -1 0
-7 -4 -14 -8z"/>
<path d="M3286 448 c3 -4 9 -8 15 -8 5 0 9 4 9 8 0 5 -7 9 -15 9 -8 0 -12 -4
-9 -9z"/>
<path d="M3225 439 c-4 -6 -4 -13 -1 -16 3 -4 6 -1 6 6 0 8 6 11 16 7 8 -3 12
-2 9 4 -8 13 -22 13 -30 -1z"/>
<path d="M3320 446 c0 -2 9 -6 20 -9 11 -3 18 -1 14 4 -5 9 -34 13 -34 5z"/>
<path d="M3445 430 c3 -5 8 -10 11 -10 2 0 4 5 4 10 0 6 -5 10 -11 10 -5 0 -7
-4 -4 -10z"/>
<path d="M3365 410 c4 -6 11 -8 16 -5 14 9 11 15 -7 15 -8 0 -12 -5 -9 -10z"/>
<path d="M3086 383 c-6 -14 -5 -15 5 -6 7 7 10 15 7 18 -3 3 -9 -2 -12 -12z"/>
<path d="M3171 391 c-8 -5 -9 -11 -3 -15 5 -3 12 1 16 9 6 17 6 18 -13 6z"/>
<path d="M3431 384 c0 -11 3 -14 6 -6 3 7 2 16 -1 19 -3 4 -6 -2 -5 -13z"/>
<path d="M3480 389 c0 -5 5 -7 10 -4 6 3 10 8 10 11 0 2 -4 4 -10 4 -5 0 -10
-5 -10 -11z"/>
<path d="M3237 371 c-4 -17 -3 -21 5 -13 5 5 8 16 6 23 -3 8 -7 3 -11 -10z"/>
<path d="M3120 371 c0 -6 4 -13 10 -16 6 -3 7 1 4 9 -7 18 -14 21 -14 7z"/>
<path d="M3209 323 c-13 -16 -12 -17 4 -4 9 7 17 15 17 17 0 8 -8 3 -21 -13z"/>
<path d="M3090 310 c0 -5 5 -10 11 -10 5 0 7 5 4 10 -3 6 -8 10 -11 10 -2 0
-4 -4 -4 -10z"/>
<path d="M3615 310 c3 -5 11 -10 16 -10 6 0 7 5 4 10 -3 6 -11 10 -16 10 -6 0
-7 -4 -4 -10z"/>
<path d="M3555 300 c3 -5 8 -10 11 -10 2 0 4 5 4 10 0 6 -5 10 -11 10 -5 0 -7
-4 -4 -10z"/>
<path d="M2984 262 c0 -29 0 -30 23 -15 22 15 34 31 12 18 -6 -4 -16 1 -23 10
-11 15 -12 14 -12 -13z"/>
<path d="M3057 283 c-4 -3 -7 -11 -7 -17 0 -6 5 -5 12 2 6 6 9 14 7 17 -3 3
-9 2 -12 -2z"/>
<path d="M3184 283 c4 -8 1 -13 -8 -13 -8 0 -17 -4 -20 -9 -7 -11 13 -9 32 2
12 8 16 2 13 -17 -1 -5 5 -4 13 3 16 13 40 6 31 -9 -3 -5 -1 -12 5 -15 6 -4 9
-1 8 7 -2 8 8 14 25 16 15 2 27 8 27 13 0 6 -4 7 -10 4 -5 -3 -10 -1 -10 5 0
6 -7 4 -16 -5 -13 -12 -19 -13 -24 -5 -4 7 -14 10 -21 8 -8 -3 -23 2 -33 11
-11 9 -16 10 -12 4z"/>
<path d="M3228 283 c7 -3 16 -2 19 1 4 3 -2 6 -13 5 -11 0 -14 -3 -6 -6z"/>
<path d="M3676 278 c3 -4 -2 -8 -10 -8 -9 0 -16 -4 -16 -9 0 -5 8 -8 18 -7 9
0 16 -4 15 -10 -1 -6 5 -11 13 -11 12 0 12 3 -1 17 -10 11 -11 20 -5 26 7 7 6
11 -4 11 -8 0 -13 -4 -10 -9z"/>
<path d="M3715 269 c5 -26 15 -38 15 -18 0 11 2 11 10 -1 7 -11 10 -12 10 -2
0 13 -23 42 -34 42 -3 0 -3 -10 -1 -21z"/>
<path d="M3594 265 c-3 -8 -4 -20 -2 -27 3 -7 7 -1 10 15 6 29 1 36 -8 12z"/>
<path d="M3120 250 c0 -11 2 -20 4 -20 2 0 6 9 9 20 3 11 1 20 -4 20 -5 0 -9
-9 -9 -20z"/>
<path d="M3320 260 c0 -5 5 -10 11 -10 5 0 7 5 4 10 -3 6 -8 10 -11 10 -2 0
-4 -4 -4 -10z"/>
<path d="M3366 253 c-6 -14 -5 -15 5 -6 7 7 10 15 7 18 -3 3 -9 -2 -12 -12z"/>
<path d="M3556 253 c-6 -14 -9 -15 -15 -4 -7 11 -12 11 -30 0 -11 -8 -21 -18
-21 -23 0 -4 6 -3 14 3 8 7 20 11 28 10 18 -3 48 11 48 22 0 16 -18 10 -24 -8z"/>
<path d="M3616 263 c-9 -10 -7 -63 3 -63 5 0 7 9 4 21 -3 12 0 25 7 29 7 4 8
10 2 13 -5 4 -12 4 -16 0z"/>
<path d="M3050 240 c8 -5 20 -10 25 -10 6 0 3 5 -5 10 -8 5 -19 10 -25 10 -5
0 -3 -5 5 -10z"/>
<path d="M958 209 c2 -16 8 -29 12 -29 9 0 1 48 -9 55 -4 2 -5 -9 -3 -26z"/>
<path d="M3286 227 c3 -10 9 -15 12 -12 3 3 0 11 -7 18 -10 9 -11 8 -5 -6z"/>
<path d="M3395 230 c3 -5 11 -10 16 -10 6 0 7 5 4 10 -3 6 -11 10 -16 10 -6 0
-7 -4 -4 -10z"/>
<path d="M997 223 c-3 -5 -1 -17 4 -28 7 -17 8 -17 8 8 1 27 -4 34 -12 20z"/>
<path d="M1070 216 c0 -10 4 -15 9 -11 5 3 12 -3 14 -12 4 -15 5 -15 6 -2 0 9
-6 22 -14 29 -12 10 -15 9 -15 -4z"/>
<path d="M3660 207 c14 -16 24 -31 22 -34 -2 -2 0 -8 4 -11 4 -4 3 -1 -1 7 -6
11 -4 13 10 7 14 -5 16 -4 7 7 -9 10 -8 17 1 27 10 12 9 12 -6 1 -15 -12 -21
-11 -40 5 -18 16 -18 14 3 -9z"/>
<path d="M3720 215 c0 -9 6 -12 15 -9 8 4 12 10 9 15 -8 14 -24 10 -24 -6z"/>
<path d="M3060 210 c0 -6 7 -10 15 -10 8 0 15 2 15 4 0 2 -7 6 -15 10 -8 3
-15 1 -15 -4z"/>
<path d="M3370 206 c0 -8 4 -17 9 -20 5 -4 7 3 4 14 -6 23 -13 26 -13 6z"/>
<path d="M926 195 c4 -8 8 -15 10 -15 2 0 4 7 4 15 0 8 -4 15 -10 15 -5 0 -7
-7 -4 -15z"/>
<path d="M2900 200 c0 -5 5 -10 11 -10 5 0 7 5 4 10 -3 6 -8 10 -11 10 -2 0
-4 -4 -4 -10z"/>
<path d="M2984 193 c3 -6 -2 -16 -11 -22 -16 -9 -16 -10 3 -8 21 1 26 19 9 34
-4 4 -5 3 -1 -4z"/>
<path d="M3040 186 c0 -2 7 -9 15 -16 13 -11 14 -10 9 4 -5 14 -24 23 -24 12z"/>
<path d="M3171 173 c-1 -25 14 -39 25 -22 4 7 3 9 -4 5 -6 -3 -12 3 -15 16 -4
23 -4 23 -6 1z"/>
<path d="M3264 179 c-3 -6 -2 -15 3 -20 5 -5 9 -1 9 11 0 23 -2 24 -12 9z"/>
<path d="M3508 183 c7 -3 16 -2 19 1 4 3 -2 6 -13 5 -11 0 -14 -3 -6 -6z"/>
<path d="M3839 173 c-13 -16 -12 -17 4 -4 16 13 21 21 13 21 -2 0 -10 -8 -17
-17z"/>
<path d="M2874 165 c4 -24 16 -30 16 -7 0 12 -4 22 -9 22 -5 0 -8 -7 -7 -15z"/>
<path d="M3215 171 c-9 -15 15 -25 28 -12 9 9 7 10 -7 5 -13 -5 -17 -4 -12 4
4 7 5 12 2 12 -3 0 -7 -4 -11 -9z"/>
<path d="M3394 165 c-9 -22 1 -29 15 -11 8 10 9 16 1 21 -5 3 -13 -1 -16 -10z"/>
<path d="M3791 168 c-1 -20 14 -24 25 -6 4 6 3 8 -4 4 -5 -3 -13 0 -15 6 -3 8
-6 6 -6 -4z"/>
<path d="M911 136 l2 -31 4 28 c4 23 7 26 18 17 14 -11 55 -5 55 8 0 4 -18 7
-40 8 -38 0 -40 -1 -39 -30z"/>
<path d="M1001 152 c0 -12 2 -13 6 -3 4 10 7 10 13 1 5 -9 9 -8 13 2 3 9 -2
14 -14 15 -12 1 -19 -4 -18 -15z"/>
<path d="M2846 157 c3 -10 9 -15 12 -12 3 3 0 11 -7 18 -10 9 -11 8 -5 -6z"/>
<path d="M3019 153 c-13 -16 -12 -17 4 -4 16 13 21 21 13 21 -2 0 -10 -8 -17
-17z"/>
<path d="M3100 159 c0 -15 18 -19 23 -6 3 8 -1 14 -9 14 -8 0 -14 -4 -14 -8z"/>
<path d="M3472 165 c2 -1 13 -7 25 -13 16 -9 22 -9 26 1 3 8 -6 13 -25 14 -16
0 -28 0 -26 -2z"/>
<path d="M3540 166 c0 -2 8 -10 18 -17 15 -13 16 -12 3 4 -13 16 -21 21 -21
13z"/>
<path d="M1067 133 c6 -16 5 -17 -12 -3 -15 12 -17 12 -10 1 6 -11 4 -13 -9
-8 -9 4 -14 3 -11 -2 3 -5 1 -12 -4 -15 -5 -4 -12 2 -14 11 -4 17 -5 17 -6 0
-1 -11 -6 -15 -13 -11 -7 4 -8 3 -4 -4 9 -16 46 -15 46 0 0 9 3 9 11 1 9 -9
15 -8 25 2 16 16 18 31 4 40 -6 4 -7 -1 -3 -12z"/>
<path d="M3153 133 c4 -3 1 -13 -6 -22 -11 -14 -10 -14 5 -2 16 12 16 31 1 31
-4 0 -3 -3 0 -7z"/>
<path d="M2881 121 c-8 -5 -9 -11 -3 -15 5 -3 12 1 16 9 6 17 6 18 -13 6z"/>
<path d="M3365 120 c-3 -6 1 -7 9 -4 18 7 21 14 7 14 -6 0 -13 -4 -16 -10z"/>
<path d="M3781 114 c0 -11 3 -14 6 -6 3 7 2 16 -1 19 -3 4 -6 -2 -5 -13z"/>
<path d="M933 105 c0 -8 4 -15 9 -15 4 0 8 7 8 15 0 8 -4 15 -8 15 -5 0 -9 -7
-9 -15z"/>
<path d="M1131 104 c0 -11 3 -14 6 -6 3 7 2 16 -1 19 -3 4 -6 -2 -5 -13z"/>
<path d="M3190 109 c0 -5 5 -7 10 -4 6 3 10 8 10 11 0 2 -4 4 -10 4 -5 0 -10
-5 -10 -11z"/>
<path d="M1181 96 c-9 -11 -9 -16 1 -22 7 -4 10 -4 6 1 -4 4 -3 14 3 22 6 7 9
13 6 13 -2 0 -10 -6 -16 -14z"/>
<path d="M3400 100 c-9 -6 -10 -10 -3 -10 6 0 15 5 18 10 8 12 4 12 -15 0z"/>
<path d="M3490 96 c7 -7 13 -7 20 0 6 6 3 10 -10 10 -13 0 -16 -4 -10 -10z"/>
<path d="M870 79 c0 -15 -4 -19 -16 -15 -9 3 -12 2 -9 -5 4 -6 13 -8 21 -5 16
6 17 4 8 -19 -5 -13 -8 -14 -15 -3 -6 9 -9 7 -9 -8 0 -30 25 -25 38 8 7 21 7
28 -1 28 -9 0 -9 2 -1 8 9 5 8 11 -2 20 -12 11 -14 9 -14 -9z"/>
<path d="M1068 77 c-3 -19 -2 -25 4 -19 6 6 8 18 6 28 -3 14 -5 12 -10 -9z"/>
<path d="M964 71 c0 -9 8 -18 18 -18 10 -1 15 3 12 12 -8 21 -30 25 -30 6z"/>
<path d="M1210 80 c0 -5 5 -10 11 -10 5 0 7 5 4 10 -3 6 -8 10 -11 10 -2 0 -4
-4 -4 -10z"/>
<path d="M931 64 c0 -11 3 -14 6 -6 3 7 2 16 -1 19 -3 4 -6 -2 -5 -13z"/>
<path d="M2766 64 c-4 -9 -4 -19 -1 -22 2 -3 7 3 11 12 4 9 4 19 1 22 -2 3 -7
-3 -11 -12z"/>
<path d="M2917 69 c7 -7 15 -10 18 -7 3 3 -2 9 -12 12 -14 6 -15 5 -6 -5z"/>
<path d="M3023 73 c4 -3 -1 -16 -10 -27 -18 -21 -18 -21 5 -2 24 21 29 36 10
36 -6 0 -8 -3 -5 -7z"/>
<path d="M3390 72 c0 -6 -10 -12 -22 -14 -25 -3 -36 -25 -13 -25 18 0 51 34
42 44 -4 3 -7 1 -7 -5z"/>
<path d="M3511 71 c-11 -7 -9 -10 8 -16 12 -3 19 -10 17 -14 -3 -4 5 -8 17 -8
19 -2 18 0 -6 16 -15 10 -24 21 -20 24 9 10 1 8 -16 -2z"/>
<path d="M3578 59 c9 -11 18 -19 21 -19 2 0 1 3 -2 7 -4 3 -3 11 2 17 6 7 2
11 -14 12 -21 2 -22 1 -7 -17z"/>
<path d="M3722 67 c-6 -7 -7 -19 -3 -26 6 -9 10 -5 13 13 6 30 5 31 -10 13z"/>
<path d="M3783 53 c0 -29 1 -31 13 -15 10 12 13 13 14 3 0 -9 8 -11 24 -7 15
4 26 1 29 -7 4 -9 7 -9 18 1 8 7 10 12 4 11 -5 -2 -21 3 -34 10 -17 10 -21 10
-16 1 5 -8 3 -11 -6 -8 -8 3 -13 14 -12 24 1 18 1 18 -12 1 -13 -18 -13 -18
-18 0 -2 10 -4 3 -4 -14z"/>
<path d="M3916 64 c-4 -9 -4 -19 -1 -22 2 -3 7 3 11 12 4 9 4 19 1 22 -2 3 -7
-3 -11 -12z"/>
<path d="M710 55 c0 -9 6 -12 15 -9 8 4 15 7 15 9 0 2 -7 5 -15 9 -9 3 -15 0
-15 -9z"/>
<path d="M2566 62 c-2 -4 -1 -14 5 -22 7 -12 9 -10 9 8 0 23 -5 28 -14 14z"/>
<path d="M2976 58 c3 -5 10 -6 15 -3 13 9 11 12 -6 12 -8 0 -12 -4 -9 -9z"/>
<path d="M3111 62 c-1 -8 -6 -10 -13 -6 -7 4 -9 3 -5 -1 12 -14 60 -18 52 -5
-3 6 -10 8 -15 5 -4 -3 -11 1 -13 7 -4 10 -6 10 -6 0z"/>
<path d="M1113 44 c0 -7 4 -11 9 -8 4 3 8 -5 8 -17 0 -28 7 -22 12 10 2 16 -2
25 -13 26 -9 2 -16 -3 -16 -11z"/>
<path d="M1228 53 c6 -2 10 -9 6 -14 -3 -5 -2 -9 3 -8 20 4 27 -2 13 -12 -12
-8 -12 -10 -1 -7 8 2 15 12 17 21 1 9 -2 15 -6 12 -5 -3 -11 -1 -15 5 -3 5
-12 10 -18 9 -9 0 -8 -2 1 -6z"/>
<path d="M3170 46 c0 -20 33 -26 49 -8 12 12 11 13 -8 7 -12 -4 -21 -2 -21 4
0 6 -4 11 -10 11 -5 0 -10 -6 -10 -14z"/>
<path d="M744 36 c-3 -8 -4 -21 -1 -28 3 -8 6 -5 7 7 l1 20 9 -20 c8 -19 9
-19 9 2 1 27 -17 40 -25 19z"/>
<path d="M824 35 c-3 -8 -4 -20 -2 -27 3 -7 7 -1 10 15 6 29 1 36 -8 12z"/>
<path d="M2830 40 c-8 -5 -10 -10 -5 -10 6 0 3 -5 -5 -10 -8 -5 -10 -10 -5
-10 6 0 18 9 28 20 18 21 12 26 -13 10z"/>
<path d="M3980 40 c-8 -5 -10 -10 -5 -10 6 0 3 -5 -5 -10 -8 -5 -10 -10 -5
-10 6 0 18 9 28 20 18 21 12 26 -13 10z"/>
<path d="M782 20 c0 -14 2 -19 5 -12 2 6 2 18 0 25 -3 6 -5 1 -5 -13z"/>
<path d="M911 16 c0 -13 3 -16 6 -7 5 11 7 11 14 0 7 -11 9 -9 9 7 0 12 -6 21
-15 21 -9 0 -15 -9 -14 -21z"/>
<path d="M960 24 c0 -15 6 -20 25 -20 15 0 25 6 25 14 0 11 -3 12 -14 3 -11
-10 -17 -8 -25 6 -10 17 -10 17 -11 -3z"/>
<path d="M1050 23 c0 -10 4 -14 8 -8 4 6 11 13 16 18 5 4 2 7 -7 7 -10 0 -17
-8 -17 -17z"/>
<path d="M1092 20 c0 -14 2 -19 5 -12 2 6 2 18 0 25 -3 6 -5 1 -5 -13z"/>
<path d="M2910 36 c0 -2 8 -10 18 -17 15 -13 16 -12 3 4 -13 16 -21 21 -21 13z"/>
<path d="M3410 29 c0 -5 5 -7 10 -4 6 3 10 8 10 11 0 2 -4 4 -10 4 -5 0 -10
-5 -10 -11z"/>
<path d="M1366 22 c-3 -5 1 -9 9 -9 8 0 12 4 9 9 -7 10 -11 10 -18 0z"/>
<path d="M1465 20 c-3 -5 -1 -10 4 -10 6 0 11 5 11 10 0 6 -2 10 -4 10 -3 0
-8 -4 -11 -10z"/>
<path d="M3548 13 c7 -3 16 -2 19 1 4 3 -2 6 -13 5 -11 0 -14 -3 -6 -6z"/>
</g>
</svg>
